<svg xmlns="http://www.w3.org/2000/svg" width="100%" height="100%" viewBox="0 0 1650 455" fill-rule="evenodd" stroke-linejoin="round" stroke-miterlimit="2" xmlns:v="https://vecta.io/nano"><style><![CDATA[.B{fill:#2342ff}.C{font-weight:800}.D{font-family:P22MackinacProExtraBold, P22 Mackinac Pro}]]></style><path d="M225.311 1.601a49 49 0 0 0-12.808 5.489c-4.008 2.439-7.58 5.314-10.717 8.626s-8.539 10.281-16.206 20.911-12.982 17.425-15.944 20.388-5.402 5.053-7.319 6.273-4.008 2.265-6.273 3.137-5.315 1.655-9.148 2.352-11.501.697-23.002 0-20.824-.959-27.968-.784-12.285.697-15.422 1.568-5.75 1.83-7.841 2.875-5.228 3.398-9.41 7.057-7.406 7.405-9.671 11.239-3.921 7.928-4.966 12.285-1.482 9.322-1.307 14.899 1.394 14.463 3.659 26.661 3.223 21.172 2.875 26.922-1.22 10.368-2.614 13.853-2.875 6.36-4.443 8.626-7.406 8.277-17.513 18.035-16.467 16.467-19.081 20.126-4.705 7.405-6.273 11.239-2.614 7.144-3.137 9.932S0 259.148 0 262.459s.261 6.36.784 9.148 1.742 6.36 3.659 10.717 4.705 8.626 8.364 12.808 8.016 8.103 13.069 11.762 12.808 8.364 23.263 14.115 17.251 10.368 20.388 13.853 5.663 8.016 7.58 13.592 3.833 16.031 5.75 31.366 3.572 25.615 4.966 30.843 2.875 9.497 4.443 12.808 3.223 6.186 4.966 8.626 3.572 4.618 5.489 6.535 4.356 3.921 7.319 6.012 7.319 4.182 13.069 6.273 10.629 3.223 14.637 3.398 7.841 0 11.501-.523 8.19-1.743 13.592-3.659 15.77-6.796 31.104-14.637 25.702-12.46 31.104-13.853 10.281-2.091 14.637-2.091 8.19.348 11.501 1.046 7.493 2.004 12.546 3.921 12.024 5.314 20.911 10.194 17.077 8.974 24.57 12.285 13.505 5.402 18.035 6.273 9.497 1.132 14.899.784 9.671-1.046 12.808-2.091 6.535-2.614 10.194-4.705 7.667-5.402 12.024-9.932 7.405-8.452 9.148-11.762 3.223-6.883 4.443-10.717 2.875-14.028 4.966-30.582 3.572-26.661 4.443-30.32 1.916-6.883 3.137-9.671 3.572-6.012 7.057-9.671 10.978-8.713 22.479-15.16 18.906-10.891 22.217-13.33a82.63 82.63 0 0 0 9.41-8.103c2.962-2.962 5.576-6.273 7.841-9.932s3.921-7.057 4.966-10.194 1.655-7.493 1.83-13.069.087-9.323-.261-11.239-.959-4.182-1.83-6.796-2.614-6.099-5.228-10.455-9.062-11.588-19.342-21.695-16.206-16.206-17.774-18.297-3.137-4.705-4.705-7.841-2.701-6.099-3.398-8.887-1.046-6.971-1.046-12.546 1.132-13.853 3.398-24.831 3.485-18.907 3.659-23.786-.349-9.846-1.568-14.899-2.788-9.236-4.705-12.546-3.573-5.75-4.966-7.319-3.834-3.659-7.319-6.273-7.841-4.792-13.069-6.535-11.065-2.701-17.513-2.875-15.335.087-26.661.784-18.907.784-22.74.261-7.145-1.307-9.932-2.352-6.273-3.224-10.455-6.535-10.978-11.327-20.388-24.047-15.683-20.475-18.819-23.263-6.273-5.054-9.41-6.796-6.36-3.137-9.671-4.182-8.016-1.656-14.115-1.83-11.414.348-15.944 1.568zm16.728 27.968c2.788.348 5.314 1.132 7.58 2.352s4.792 3.311 7.58 6.273 5.489 6.447 8.103 10.455 6.621 9.41 12.024 16.206 10.542 12.372 15.422 16.728 9.148 7.58 12.808 9.671 7.754 3.833 12.285 5.228 8.103 2.265 10.717 2.614 12.72.174 30.32-.523 27.619-.697 30.059 0 4.618 1.742 6.535 3.137 3.572 3.572 4.966 6.535 2.091 5.924 2.091 8.887-1.22 10.368-3.659 22.217-3.747 20.3-3.921 25.354.174 10.281 1.046 15.683 1.916 9.758 3.137 13.069 2.875 6.796 4.966 10.455 4.53 7.231 7.319 10.717 8.451 9.322 16.99 17.513 13.679 13.505 15.422 15.944 2.962 4.53 3.659 6.273 1.132 4.095 1.307 7.057.087 5.053-.261 6.273-.959 2.614-1.83 4.182-2.352 3.398-4.443 5.489-9.584 6.883-22.479 14.376-21.956 13.592-27.184 18.297-8.539 8.016-9.932 9.932-3.224 5.228-5.489 9.932-4.008 9.235-5.228 13.592-2.701 13.679-4.443 27.968-3.137 23.698-4.182 28.229-2.788 8.626-5.228 12.285-5.228 6.36-8.364 8.103-6.622 2.701-10.455 2.875-7.319-.175-10.455-1.046-11.153-4.618-24.047-11.239-21.608-10.891-26.138-12.808-8.8-3.485-12.808-4.705-8.452-2.178-13.33-2.875-10.194-.959-15.944-.784-12.285 1.22-19.604 3.137-14.463 4.443-21.433 7.58-14.986 7.144-24.047 12.024-15.073 7.841-18.035 8.887-6.709 1.655-11.239 1.83-7.58 0-9.148-.523-3.834-2.004-6.796-4.443-5.315-5.489-7.057-9.148-3.921-14.812-6.535-33.457-4.705-30.408-6.273-35.287-3.137-8.8-4.705-11.762a67.64 67.64 0 0 0-5.228-8.364c-1.917-2.614-4.182-5.228-6.796-7.841s-5.664-5.228-9.148-7.841-10.804-7.057-21.956-13.33-17.949-10.543-20.388-12.808-4.182-4.357-5.228-6.273-1.656-4.705-1.83-8.364.174-6.622 1.046-8.887 2.091-4.443 3.659-6.535 7.319-8.103 17.251-18.035 16.292-16.903 19.081-20.911a74.46 74.46 0 0 0 7.057-12.546c1.916-4.357 3.311-8.713 4.182-13.069s1.307-9.497 1.307-15.422-1.307-15.77-3.921-29.536-3.834-21.782-3.659-24.047.871-4.618 2.091-7.057 2.962-4.443 5.228-6.012 4.53-2.614 6.796-3.137 12.198-.436 29.797.261 29.884.174 36.855-1.568 12.982-4.182 18.035-7.319 9.584-6.622 13.592-10.455 10.019-11.153 18.035-21.956 13.156-17.426 15.422-19.865 4.269-4.182 6.012-5.228 3.659-1.83 5.75-2.352 4.53-.61 7.319-.261zm-83.642 107.689c-4.531 1.046-8.626 2.527-12.285 4.443s-7.319 4.53-10.978 7.841-6.796 6.97-9.41 10.978-4.705 8.103-6.273 12.285-2.788 8.626-3.659 13.33-1.307 10.194-1.307 16.467.435 11.675 1.307 16.206 2.439 9.322 4.705 14.376 4.792 9.235 7.58 12.546 5.489 5.924 8.103 7.841 6.273 3.746 10.978 5.489 9.322 2.614 13.853 2.614 8.19-.349 10.978-1.046 6.621-2.44 11.501-5.228 8.277-5.141 10.194-7.057 3.223-3.573 3.921-4.966l1.046-2.091.261 1.568c.174 1.046-.523 5.314-2.091 12.808s-3.137 13.417-4.705 17.774-3.224 8.19-4.966 11.501-3.834 6.621-6.273 9.932-5.576 6.796-9.41 10.455-7.841 6.709-12.024 9.148-8.887 4.53-14.115 6.273-8.19 3.137-8.887 4.182-1.046 2.265-1.046 3.659.697 2.701 2.091 3.921 4.443 1.655 9.148 1.307 9.671-1.394 14.899-3.137 10.891-4.357 16.99-7.841 11.152-6.883 15.16-10.194 8.016-7.319 12.024-12.024 7.754-10.194 11.239-16.467 6.273-12.46 8.364-18.558 3.572-11.414 4.443-15.944 1.481-8.539 1.83-12.024.348-10.02 0-19.604-1.22-17.513-2.614-23.786-3.573-12.808-6.535-19.604-5.402-11.588-7.319-14.376-4.182-5.489-6.796-8.103-5.402-4.966-8.364-7.057-6.796-4.008-11.501-5.75-9.758-2.788-15.16-3.137-10.368 0-14.899 1.046zm164.409.784c-4.357.871-9.323 2.527-14.899 4.966a95.27 95.27 0 0 0-15.944 8.887c-5.054 3.485-9.148 6.709-12.285 9.671s-6.971 7.405-11.501 13.33-8.19 11.501-10.978 16.728-4.966 10.019-6.535 14.376-2.962 9.061-4.182 14.115-2.178 10.368-2.875 15.944-1.046 12.11-1.046 19.604.348 13.679 1.046 18.558 1.916 10.107 3.659 15.683 4.008 10.803 6.796 15.683 5.663 8.887 8.626 12.024 6.796 6.186 11.501 9.148 9.061 5.053 13.069 6.273 8.451 1.916 13.33 2.091 9.061-.087 12.546-.784 6.97-1.743 10.455-3.137 6.796-3.137 9.932-5.228 5.924-4.357 8.364-6.796 4.618-5.054 6.535-7.841 3.746-6.012 5.489-9.671 3.223-7.841 4.443-12.546 2.004-10.543 2.352-17.513-.087-13.505-1.307-19.604-2.44-10.543-3.659-13.33-2.788-5.664-4.705-8.626-3.834-5.489-5.75-7.58-4.182-4.095-6.796-6.012-6.186-3.659-10.717-5.228-8.277-2.44-11.239-2.614-6.012 0-9.148.523a42.13 42.13 0 0 0-9.148 2.614c-2.962 1.22-5.489 2.527-7.58 3.921s-4.879 4.008-8.364 7.841l-5.228 5.75 1.046-6.796c.697-4.531 1.916-9.671 3.659-15.422s3.485-10.543 5.228-14.376 3.833-7.755 6.273-11.762 4.618-7.232 6.535-9.671 5.053-5.664 9.41-9.671 8.016-6.883 10.978-8.626 6.012-3.05 9.148-3.921 5.228-1.743 6.273-2.614 1.655-2.091 1.83-3.659.087-2.701-.261-3.398-1.046-1.307-2.091-1.83-2.266-.784-3.659-.784-4.269.435-8.626 1.307zm-152.647 10.717c1.916 0 4.095.523 6.535 1.568s4.792 2.788 7.057 5.228 4.53 6.186 6.796 11.239 4.008 10.978 5.228 17.774 1.83 14.027 1.83 21.695-.436 13.33-1.307 16.99-2.527 7.144-4.966 10.455-5.489 5.75-9.148 7.319-6.709 2.265-9.148 2.091-4.705-.697-6.796-1.568-4.357-2.527-6.796-4.966-4.618-5.75-6.535-9.932-3.398-9.148-4.443-14.899-1.482-12.46-1.307-20.126.871-14.115 2.091-19.342 2.439-9.062 3.659-11.501 2.527-4.443 3.921-6.012 3.485-2.962 6.273-4.182 5.14-1.83 7.057-1.83zm132.782 76.846c2.265 0 4.269.261 6.012.784s3.921 1.916 6.535 4.182 4.792 5.228 6.535 8.887 3.049 8.103 3.921 13.33 1.22 12.11 1.046 20.649-.959 15.944-2.352 22.217-2.875 10.891-4.443 13.853-3.137 5.228-4.705 6.796-3.834 2.875-6.796 3.921-5.489 1.481-7.58 1.307-3.921-.61-5.489-1.307-3.747-2.527-6.535-5.489-5.141-7.057-7.057-12.285-3.224-10.455-3.921-15.683-.959-11.327-.784-18.297.958-13.156 2.352-18.558 2.875-9.41 4.443-12.024 3.049-4.618 4.443-6.012 3.572-2.788 6.535-4.182 5.576-2.091 7.841-2.091z" fill-rule="nonzero" class="B"/><g transform="matrix(4.122075 0 0 4.122075 -164.119007 -699.387424)" class="B C"><text x="177" y="221.815" font-size="50" class="D">T<tspan x="204.25px 233.55px 282.8px" y="221.815px 221.815px 221.815px">own</tspan></text><text x="327.7" y="221.815" font-family="P22MackinacProExtraBold-Italic, P22 Mackinac Pro" font-style="italic" font-size="50">of</text><text x="177" y="270.249" font-size="50" class="D">Ni<tspan x="235.6px" y="270.249px">n</tspan>ety Six</text></g></svg>